<?xml version="1.0" encoding="UTF-8"?>
<svg xmlns="http://www.w3.org/2000/svg" xmlns:xlink="http://www.w3.org/1999/xlink" width="108px" height="100px" viewBox="0 0 108 100" version="1.1">
<g id="surface1">
<path style="fill-rule:nonzero;fill:rgb(40%,200%,60%);fill-opacity:1;stroke-width:0.25;stroke-linecap:butt;stroke-linejoin:miter;stroke:rgb(0%,0%,0%);stroke-opacity:1;stroke-miterlimit:4;" d="M 274.101577 50.297721 C 273.496387 27.902755 259.100796 12.398547 242.403498 4.596941 C 222.402456 -4.699643 199.097671 0.904048 184.70208 15.596414 C 179.602608 20.90309 175.802807 27.595839 168.699262 34.298488 C 156.397034 46.000897 148.69822 49.396774 137.001183 49.604685 C 118.299812 49.9017 106.196007 38.496306 103.497454 36.199387 C 98.596405 32.199578 97.703501 26.595887 92.504818 21.200105 C 79.498188 7.804708 55.201288 -4.699643 29.495584 7.200776 C -17.203277 29.001712 -9.196908 111.997734 60.598394 107.30489 C 70.499703 108.304842 77.404825 112.601666 83.099566 118.304363 C 85.401273 120.601282 88.595884 124.096164 91.096014 128.303884 C 93.9037 132.996728 97.296734 140.501319 98.100347 144.303117 C 99.697653 151.995817 99.796864 157.99553 96.40383 166.599078 C 93.29851 174.598695 86.700944 183.004232 85.500485 189.201955 C 78.704496 225.596251 105.997584 253.297893 137.49724 253.198888 C 164.998673 253.099883 195.803848 227.49715 188.501881 190.201907 C 187.102998 183.004232 182.89643 176.301583 178.997418 168.895998 C 175.098405 161.599318 175.902018 148.302925 178.302937 137.600468 C 181.795182 128.600899 184.196101 125.304027 189.603129 119.60133 C 192.500105 116.601474 205.695237 108.700863 214.396087 107.195984 C 223.90055 105.602001 232.095421 105.602001 239.903367 102.602145 C 259.596853 95.295564 274.796058 74.296571 274.101577 50.297721 Z M 51.798333 82.395193 C 36.896763 82.395193 24.802879 70.197757 24.802879 55.099471 C 24.802879 40.001185 36.896763 27.803749 51.798333 27.803749 C 66.699902 27.803749 78.803707 40.001185 78.803707 55.099471 C 78.803707 70.197757 66.699902 82.395193 51.798333 82.395193 Z M 137.100394 228.002076 C 122.198825 228.002076 110.104941 215.804641 110.104941 200.696454 C 110.104941 185.598167 122.198825 173.400732 137.100394 173.400732 C 152.001964 173.400732 164.095848 185.598167 164.095848 200.696454 C 164.095848 215.804641 152.001964 228.002076 137.100394 228.002076 Z M 137.100394 129.996872 C 122.198825 129.996872 110.104941 117.799436 110.104941 102.70115 C 110.104941 87.602864 122.198825 75.395528 137.100394 75.395528 C 152.001964 75.395528 164.095848 87.602864 164.095848 102.70115 C 164.095848 117.799436 152.001964 129.996872 137.100394 129.996872 Z M 221.797266 80.395288 C 206.895696 80.395288 194.801812 68.197853 194.801812 53.099567 C 194.801812 38.001281 206.895696 25.803845 221.797266 25.803845 C 236.698835 25.803845 248.80264 38.001281 248.80264 53.099567 C 248.80264 68.197853 236.698835 80.395288 221.797266 80.395288 Z M 221.797266 80.395288 " transform="matrix(0.393729,0,0,0.39455,0,0.010495)"/>
</g>
</svg>
