<?xml version="1.0" standalone="no"?>
<!DOCTYPE svg PUBLIC "-//W3C//DTD SVG 20010904//EN"
 "http://www.w3.org/TR/2001/REC-SVG-20010904/DTD/svg10.dtd">
<svg version="1.0" xmlns="http://www.w3.org/2000/svg"
 width="240.000000pt" height="240.000000pt" viewBox="0 0 240.000000 240.000000"
 preserveAspectRatio="xMidYMid meet">
<metadata>
Created by potrace 1.10, written by Peter Selinger 2001-2011
</metadata>
<g transform="translate(0.000000,240.000000) scale(0.100000,-0.100000)"
fill="#000000" stroke="none">
<path d="M1430 2255 c-14 -8 -51 -26 -82 -41 -87 -41 -204 -178 -224 -261 -4
-16 -10 -32 -14 -38 -9 -11 -14 -85 -12 -157 2 -40 7 -52 39 -83 29 -28 44
-35 63 -32 36 7 147 48 184 68 10 6 59 13 108 16 139 7 258 -39 367 -144 l23
-22 -42 -38 c-45 -40 -108 -121 -126 -163 -44 -97 -45 -106 -41 -211 4 -106
20 -184 44 -207 7 -7 13 -20 13 -28 0 -19 151 -170 179 -179 14 -4 21 -15 21
-31 0 -22 -5 -35 -31 -84 -5 -8 -20 -37 -34 -65 -34 -66 -40 -77 -106 -165
-55 -73 -130 -150 -146 -150 -5 0 -26 -9 -47 -21 -40 -21 -91 -20 -146 3 -14
5 -38 16 -55 23 -16 6 -47 20 -68 29 -41 18 -231 23 -241 7 -3 -5 -18 -12 -33
-15 -16 -4 -41 -13 -58 -21 -109 -50 -155 -57 -191 -30 -10 8 -26 15 -35 15
-34 0 -170 158 -246 285 -25 43 -83 166 -83 178 0 7 -7 22 -15 33 -8 10 -15
29 -15 40 0 12 -7 35 -15 50 -8 16 -15 45 -15 65 0 19 -6 41 -12 47 -10 10
-13 62 -13 192 0 130 3 182 13 192 6 6 12 26 12 44 0 17 7 37 15 44 8 7 15 19
15 28 0 24 40 83 101 147 54 56 129 103 217 136 43 15 136 15 200 -2 27 -6 58
-9 68 -5 34 13 -27 50 -102 63 -173 30 -350 -53 -471 -219 -36 -49 -49 -75
-87 -160 -43 -97 -40 -445 4 -568 7 -19 18 -51 25 -70 48 -136 128 -291 194
-379 54 -71 158 -168 203 -191 41 -20 57 -22 121 -17 41 3 83 10 93 16 45 25
119 51 143 51 15 0 32 5 38 11 16 16 141 -3 188 -28 91 -48 187 -64 263 -44
23 7 66 31 95 54 48 40 186 207 208 252 5 11 13 28 19 38 63 110 94 189 85
217 -4 12 -28 34 -54 51 -63 38 -144 126 -172 186 -18 39 -23 70 -27 174 l-4
125 34 69 c21 44 55 91 93 130 96 95 93 88 49 137 -21 24 -61 59 -88 78 -28
19 -52 38 -54 43 -2 4 -13 7 -24 7 -11 0 -32 6 -46 14 -46 24 -177 49 -219 43
-79 -13 -129 -26 -158 -41 -16 -9 -38 -16 -47 -16 -9 0 -20 -4 -23 -10 -3 -5
-21 -10 -39 -10 -31 0 -34 3 -40 38 -9 56 -7 133 4 172 15 53 78 151 123 192
46 42 147 98 176 98 11 0 21 5 23 12 2 6 10 8 16 4 13 -8 6 -111 -8 -131 -4
-5 -10 -23 -14 -40 -14 -57 -145 -205 -182 -205 -8 0 -14 -4 -14 -10 0 -5 -11
-10 -25 -10 -25 0 -33 14 -15 25 6 3 10 20 10 36 0 28 19 68 47 96 6 7 20 23
30 35 10 13 31 31 46 41 19 13 27 25 25 40 -6 41 -36 31 -102 -35 -72 -72
-111 -140 -120 -213 -6 -43 -4 -55 15 -79 25 -32 47 -30 110 9 21 14 42 25 47
25 20 0 130 132 158 190 52 106 69 215 40 253 -16 21 -88 22 -126 2z"/>
<path d="M716 1626 c-30 -31 -60 -56 -66 -56 -5 0 -10 -6 -10 -13 0 -13 -141
-157 -153 -157 -30 0 62 110 138 166 l28 21 -21 21 c-21 21 -24 21 -50 8 -44
-24 -134 -126 -169 -192 -49 -92 -42 -144 18 -144 38 0 382 340 377 373 -5 39
-35 30 -92 -27z"/>
<path d="M1405 1648 c-15 -18 -234 -241 -487 -495 -454 -456 -485 -492 -436
-501 23 -4 1010 983 1006 1006 -2 10 -14 18 -29 20 -20 2 -33 -5 -54 -30z"/>
<path d="M1223 1324 c-763 -771 -718 -724 -707 -741 6 -9 15 -18 20 -20 6 -2
188 174 405 391 704 705 685 685 673 703 -6 9 -16 19 -23 21 -7 2 -172 -157
-368 -354z"/>
<path d="M634 1406 c-207 -208 -265 -272 -262 -289 2 -12 10 -23 18 -25 18 -3
540 519 540 540 0 9 -7 21 -16 28 -13 12 -51 -23 -280 -254z"/>
<path d="M1231 1197 c-248 -248 -500 -503 -561 -565 -109 -111 -127 -142 -88
-150 19 -4 1123 1096 1133 1129 4 11 -1 21 -13 28 -17 9 -74 -44 -471 -442z"/>
<path d="M760 1394 c-129 -129 -268 -268 -307 -307 -75 -73 -95 -117 -54 -117
26 0 643 618 639 639 -9 48 -45 20 -278 -215z"/>
<path d="M1241 1613 c-8 -3 -26 -20 -42 -37 -15 -17 -194 -199 -398 -405 -214
-216 -371 -382 -371 -393 0 -12 7 -18 23 -18 16 0 131 109 422 400 328 327
400 405 400 427 0 27 -10 35 -34 26z"/>
<path d="M958 1462 c-71 -70 -175 -174 -231 -231 -56 -58 -153 -155 -214 -216
-115 -113 -139 -155 -92 -155 24 0 709 680 709 704 0 7 -10 16 -22 19 -17 5
-46 -18 -150 -121z"/>
<path d="M1748 1583 c-10 -2 -18 -8 -18 -13 0 -5 -165 -175 -367 -378 -203
-203 -391 -393 -420 -423 -28 -30 -113 -115 -187 -189 -99 -98 -136 -141 -136
-158 0 -20 4 -23 23 -18 12 3 258 242 547 531 289 290 544 545 568 568 58 55
52 97 -10 80z"/>
<path d="M1578 1280 c-1 -5 -204 -211 -450 -457 -245 -246 -447 -455 -448
-463 -4 -28 0 -40 14 -40 17 0 930 914 934 936 6 25 -41 48 -50 24z"/>
<path d="M1369 927 c-581 -583 -622 -626 -609 -642 7 -8 18 -15 25 -15 6 0
197 185 424 411 320 319 411 416 409 432 -7 49 -38 26 -249 -186z"/>
<path d="M1242 664 c-194 -196 -351 -361 -349 -367 2 -7 14 -13 26 -15 18 -3
93 68 372 346 348 349 384 392 327 392 -17 0 -120 -98 -376 -356z"/>
<path d="M1364 653 c-154 -156 -273 -285 -272 -293 2 -8 13 -16 24 -18 29 -4
559 528 559 561 0 58 -37 29 -311 -250z"/>
<path d="M1519 674 c-96 -97 -202 -204 -236 -239 -67 -67 -79 -95 -39 -95 33
0 488 455 484 484 -2 12 -10 22 -19 24 -9 2 -86 -69 -190 -174z"/>
<path d="M1547 562 c-171 -171 -207 -212 -207 -235 0 -20 4 -28 15 -25 24 5
435 420 441 446 5 18 2 22 -18 22 -17 0 -77 -54 -231 -208z"/>
<path d="M1757 640 c-12 -10 -63 -59 -112 -110 -50 -51 -120 -123 -157 -159
-69 -66 -85 -102 -51 -115 13 -5 46 24 135 118 66 69 127 127 137 131 10 3 23
15 29 28 6 12 11 16 11 9 1 -22 -75 -117 -144 -178 -72 -65 -87 -104 -39 -104
20 0 49 23 120 95 90 91 110 119 135 178 6 15 15 27 19 27 13 0 21 49 11 69
-14 26 -67 32 -94 11z"/>
</g>
</svg>
