<?xml version="1.0" standalone="no"?>
<!DOCTYPE svg PUBLIC "-//W3C//DTD SVG 20010904//EN"
 "http://www.w3.org/TR/2001/REC-SVG-20010904/DTD/svg10.dtd">
<svg version="1.0" xmlns="http://www.w3.org/2000/svg"
 width="30.000000pt" height="29.000000pt" viewBox="0 0 30.000000 29.000000"
 preserveAspectRatio="xMidYMid meet">
<metadata>
Created by potrace 1.10, written by Peter Selinger 2001-2011
</metadata>
<g transform="translate(0.000000,29.000000) scale(0.100000,-0.100000)"
fill="#2acece" stroke="none">
<path d="M73 260 c-86 -52 -82 -189 6 -235 38 -19 104 -19 142 0 88 46 92 183
6 235 -42 26 -112 26 -154 0z m123 -9 c6 0 23 -13 38 -27 21 -22 26 -36 26
-78 -1 -51 -1 -51 -14 -21 -7 17 -11 37 -9 46 6 22 -21 41 -54 37 -18 -2 -35
4 -47 16 -19 19 -20 19 -41 -8 -13 -16 -28 -46 -35 -67 -16 -47 -33 -41 -24 9
11 63 60 103 119 97 17 -1 35 -3 41 -4z m-66 -43 c0 -26 50 -120 62 -116 22 8
19 24 -7 36 -35 16 -32 57 4 57 13 0 26 -6 29 -14 3 -9 -1 -11 -17 -6 -12 3
-21 2 -21 -4 0 -5 9 -12 19 -16 34 -10 37 -57 5 -69 -25 -10 -42 5 -61 50 -10
24 -21 44 -25 44 -3 0 -12 -16 -18 -35 -6 -19 -18 -35 -25 -35 -10 0 -7 16 13
60 26 56 42 75 42 48z m50 -157 l25 -9 -27 -7 c-37 -10 -71 0 -105 30 -24 20
-25 23 -7 19 12 -3 26 1 34 11 12 15 15 14 34 -9 12 -14 32 -30 46 -35z"/>
</g>
</svg>
