 <svg version="1.0" xmlns="http://www.w3.org/2000/svg"  width="500px" height="500px" viewBox="0 0 259.000000 194.000000"  preserveAspectRatio="xMidYMid meet">  <g transform="translate(0.000000,194.000000) scale(0.050000,-0.050000)" fill="#f3f3f3" stroke="none"> <path d="M3209 3361 c17 -19 25 -40 18 -48 -8 -7 -3 -13 10 -13 22 0 27 9 31 65 1 14 -19 26 -44 27 -41 2 -43 0 -15 -31z"/> <path d="M3112 3249 c-13 -34 33 -60 68 -39 16 10 15 22 -1 42 -31 36 -52 36 -67 -3z"/> <path d="M2307 3199 c-278 -43 -390 -143 -324 -288 117 -255 1197 -202 1197 59 0 179 -442 295 -873 229z m564 -121 c134 -25 236 -71 219 -98 -68 -109 -747 -129 -987 -28 -221 92 400 194 768 126z m109 -216 c0 -26 -106 -57 -248 -73 -176 -21 -142 34 40 63 185 30 208 31 208 10z"/> <path d="M745 2935 c4 -113 18 -234 30 -270 12 -36 14 -61 4 -54 -70 43 10 -62 174 -227 106 -106 192 -201 190 -210 -2 -10 5 -11 17 -4 11 7 20 -4 20 -25 0 -20 11 -48 24 -61 13 -13 18 -29 11 -36 -16 -16 -155 35 -155 57 0 10 -10 11 -23 3 -14 -9 -18 -5 -9 8 7 12 26 17 43 11 16 -6 29 -3 29 8 0 35 -25 44 -64 23 -45 -24 -137 5 -180 57 -21 25 -21 33 -1 40 14 5 -12 28 -57 52 -51 27 -102 77 -134 132 -29 49 -42 82 -30 75 13 -8 29 -5 36 6 7 11 -1 25 -17 32 -56 21 -77 113 -55 253 1 8 12 15 24 15 15 0 13 -12 -5 -34 -23 -29 -23 -32 6 -21 44 16 66 -39 33 -83 -14 -17 -17 -25 -7 -17 10 8 39 1 64 -15 58 -38 59 -42 -10 90 -64 125 -105 145 -139 70 -30 -65 -30 -112 -1 -184 12 -31 25 -69 27 -86 3 -16 11 -46 20 -65 21 -51 -16 -43 -70 15 -57 60 -100 65 -100 9 0 -73 54 -172 148 -270 112 -117 106 -134 -18 -49 -66 45 -100 58 -115 43 -46 -46 90 -273 183 -305 113 -40 114 -98 2 -98 -71 0 -100 -8 -100 -27 0 -39 148 -137 214 -142 90 -7 83 -39 -13 -62 -133 -33 -128 -90 11 -139 43 -16 62 -29 43 -29 -123 -3 43 -141 169 -141 34 0 39 -5 20 -24 -68 -68 22 -151 137 -126 44 10 56 4 65 -32 10 -38 22 -42 93 -33 69 10 81 6 81 -25 0 -62 138 -72 245 -17 22 12 49 9 75 -8 34 -21 51 -19 103 11 56 31 66 32 96 5 41 -38 157 -11 211 49 20 22 48 40 62 40 15 0 63 48 108 107 l81 107 -43 188 c-46 202 -133 315 -368 475 -43 30 -105 92 -136 138 -31 47 -69 85 -84 85 -65 0 -186 284 -187 442 -1 50 -11 116 -22 146 -12 31 -17 63 -11 72 5 9 -8 12 -30 6 -23 -6 -63 -59 -98 -128 -58 -117 -59 -118 -72 -58 -36 162 -250 359 -266 245 -9 -60 -29 -57 -69 13 -39 65 -165 182 -197 182 -13 0 -18 -73 -13 -205z m61 58 c-7 -11 -2 -13 11 -5 13 8 18 23 12 33 -6 11 -2 19 9 19 29 0 82 -83 68 -106 -7 -11 -2 -14 10 -6 39 24 84 -77 91 -210 10 -164 62 -267 211 -420 109 -112 111 -118 61 -118 -123 0 -450 327 -467 467 -3 23 -16 69 -29 100 -13 32 -20 99 -15 150 5 51 10 111 11 133 1 32 5 34 20 11 10 -16 13 -38 7 -48z m398 -185 c78 -112 68 -127 -16 -25 -40 48 -90 96 -111 108 -21 12 -32 27 -24 35 22 22 92 -32 151 -118z m273 -59 c27 -60 31 -222 5 -237 -9 -6 -13 28 -7 77 6 56 -1 109 -21 149 -17 34 -24 62 -16 62 9 0 26 -23 39 -51z m-285 -102 c-11 -27 -8 -29 18 -7 22 18 30 19 30 1 0 -13 9 -18 20 -11 11 7 14 -1 7 -20 -7 -18 -24 -28 -39 -22 -16 6 -22 -1 -15 -19 6 -16 21 -23 32 -16 14 8 17 2 10 -17 -7 -17 -5 -39 4 -49 8 -9 26 -48 38 -87 21 -65 20 -67 -9 -30 -17 22 -40 37 -52 34 -11 -3 -16 8 -9 25 6 16 2 35 -8 42 -11 6 -15 20 -9 30 7 10 -3 45 -20 79 -17 34 -26 70 -20 81 20 31 35 22 22 -14z m-68 -82 c24 -52 32 -59 26 -25 -9 44 -6 43 19 -10 47 -96 38 -124 -21 -68 -53 49 -108 139 -108 176 0 43 51 -2 84 -73z m265 -80 c7 -25 22 -40 32 -34 11 6 19 -2 19 -19 0 -51 45 -132 73 -132 15 0 27 -9 27 -20 0 -36 -57 -21 -89 24 -29 43 -31 43 -33 5 -2 -34 -4 -34 -12 -4 -5 20 -19 29 -31 22 -11 -7 -16 -4 -9 7 7 11 -5 55 -27 97 -21 43 -39 104 -39 136 l0 58 37 -47 c21 -27 44 -68 52 -93z m-859 -24 c19 -22 52 -45 72 -52 33 -10 106 -70 185 -150 12 -13 55 -55 93 -94 77 -78 57 -71 -85 31 -53 38 -105 85 -116 106 -11 21 -31 38 -44 38 -74 0 223 -238 315 -253 22 -3 90 -24 150 -46 174 -63 204 -57 147 31 -83 127 131 103 283 -32 22 -19 74 -41 115 -48 83 -15 103 -52 28 -52 -26 0 -89 -6 -141 -13 -75 -10 -91 -7 -82 15 7 20 -6 28 -45 29 -30 1 -72 9 -93 19 -27 12 -34 10 -24 -6 29 -47 -425 60 -543 129 -83 48 -110 87 -60 87 14 0 -6 19 -45 43 -81 49 -110 83 -150 174 -43 98 -27 117 40 44z m1010 -241 c6 -8 31 -21 57 -29 25 -8 43 -18 39 -22 -5 -4 -51 5 -103 21 -52 16 -90 21 -84 11 6 -9 -2 -22 -17 -28 -26 -9 -92 43 -92 73 0 17 187 -8 200 -26z m-874 -125 c42 -20 168 -59 280 -86 112 -27 229 -56 260 -64 l57 -15 -42 -44 c-49 -53 -181 -94 -209 -66 -13 13 -12 20 4 20 13 0 24 8 24 17 0 9 -45 5 -101 -9 -65 -17 -118 -20 -148 -8 -51 19 -86 60 -52 60 11 0 21 9 21 20 0 11 -30 20 -67 20 -77 0 -135 53 -182 165 -42 100 -40 105 24 63 30 -20 89 -53 131 -73z m914 53 c44 -18 80 -43 80 -55 -1 -42 -35 -78 -60 -63 -19 12 -18 19 3 32 20 13 15 17 -17 18 -24 0 -49 9 -56 20 -7 12 -23 14 -36 6 -13 -7 -10 3 6 24 28 34 27 36 -15 25 -25 -6 -40 -3 -34 7 16 25 36 23 129 -14z m162 -23 c1 -19 4 -48 7 -65 2 -16 6 -46 8 -65 1 -19 17 -35 33 -35 17 0 30 -14 30 -31 0 -17 8 -26 19 -20 10 7 26 0 35 -14 9 -14 68 -65 132 -113 112 -85 170 -144 112 -113 -15 8 -6 -3 20 -25 31 -24 42 -48 32 -64 -11 -17 -8 -21 7 -12 13 8 23 3 23 -11 0 -13 20 -47 45 -74 58 -63 22 -41 -176 106 -212 158 -335 296 -206 231 28 -14 14 7 -36 53 -79 73 -127 168 -127 250 0 47 39 49 42 2z m-317 -211 l49 -25 -48 -36 c-47 -35 -186 -17 -186 25 0 58 103 79 185 36z m305 -14 c34 -15 35 -17 5 -19 -39 -1 -49 -41 -10 -41 17 -1 18 -5 3 -15 -12 -8 -33 -35 -46 -60 -22 -42 -27 -43 -55 -14 -29 28 -35 27 -61 -11 -17 -24 -43 -38 -58 -32 -15 6 -28 0 -28 -12 0 -13 -19 -3 -42 22 l-42 45 42 30 c24 16 38 37 32 47 -24 40 191 90 260 60z m-527 -123 c-67 -60 -103 -72 -103 -35 0 12 -38 -6 -84 -40 -98 -72 -156 -80 -156 -22 0 28 -14 40 -45 41 -68 2 141 58 252 67 53 4 106 17 116 27 10 10 33 18 51 18 22 0 13 -17 -31 -56z m645 -35 c6 -9 -19 -50 -57 -90 -64 -68 -108 -96 -81 -52 7 11 5 20 -4 20 -9 0 -28 -18 -41 -40 -27 -42 -145 -58 -145 -19 0 53 61 135 95 127 19 -5 62 9 95 31 64 43 120 53 138 23z m-442 -69 c53 -14 95 -32 95 -39 -1 -8 -1 -40 -1 -71 0 -41 -14 -63 -50 -79 -27 -13 -90 -79 -141 -148 -50 -69 -106 -137 -124 -151 -40 -30 -165 -33 -165 -4 0 12 -9 16 -20 9 -39 -24 -19 24 28 68 38 36 192 77 192 52 0 -4 -32 -26 -71 -51 -39 -24 -67 -48 -61 -53 15 -16 123 55 150 98 20 31 20 37 0 25 -15 -10 -19 -7 -10 8 8 13 22 19 31 13 9 -5 32 14 51 43 19 28 24 46 12 38 -12 -7 -22 -4 -22 8 0 12 21 30 46 40 25 9 72 52 103 94 l57 77 -86 -80 c-47 -44 -80 -69 -72 -55 43 76 -32 9 -84 -75 -59 -95 -162 -150 -131 -70 6 17 1 30 -11 30 -12 0 -22 -13 -22 -29 0 -70 -115 -89 -240 -39 -82 33 -106 68 -47 68 119 0 409 189 374 244 -8 13 -19 9 -30 -11 -10 -17 -31 -26 -48 -20 -22 8 -26 2 -16 -24 9 -23 6 -31 -8 -22 -12 7 -36 -1 -53 -18 -24 -24 -32 -25 -32 -5 -1 19 -6 18 -20 -4 -11 -16 -20 -21 -20 -11 0 11 -9 10 -21 -2 -12 -12 -45 -16 -75 -10 -52 11 -52 11 16 24 110 21 126 27 168 64 22 19 47 35 57 35 10 0 13 7 7 17 -12 20 49 17 83 -4 14 -8 45 -1 69 16 25 17 45 31 45 30 1 0 44 -12 97 -26z m-346 -27 c0 -11 -142 -72 -185 -79 -39 -7 -48 23 -13 44 12 8 30 2 40 -13 10 -16 18 -18 18 -6 0 12 20 31 44 42 45 19 96 26 96 12z m765 -61 l-10 -55 44 55 c24 30 54 54 67 53 17 -1 16 -4 -1 -11 -14 -6 -20 -19 -14 -29 14 -22 -82 -150 -125 -167 -76 -29 -75 82 0 164 51 56 50 56 39 -10z m172 -88 c-40 -80 -81 -93 -94 -29 -8 44 72 133 107 119 19 -7 16 -28 -13 -90z m83 -20 c0 -11 9 -14 20 -7 12 7 15 23 7 36 -7 13 -6 17 4 8 52 -47 14 -139 -40 -95 -39 32 -54 101 -19 87 16 -5 28 -19 28 -29z m-537 -34 c-82 -47 -130 -88 -154 -132 -29 -51 -80 -69 -62 -22 39 102 187 220 247 197 18 -7 8 -21 -31 -43z m103 -71 c-82 -131 -167 -209 -133 -122 20 53 -22 32 -56 -28 -47 -84 -123 -122 -113 -59 4 26 18 45 31 42 13 -2 19 7 14 20 -21 56 174 223 246 211 25 -4 33 5 29 34 -4 31 -1 34 13 12 14 -20 4 -53 -31 -110z m274 -2 c-11 -13 -13 -30 -5 -38 7 -8 -1 -9 -19 -2 -24 10 -49 -16 -99 -99 -64 -108 -108 -147 -84 -76 7 21 -7 14 -36 -20 -39 -45 -165 -115 -206 -115 -33 0 -4 38 37 48 27 6 81 58 123 117 42 57 99 123 126 145 93 74 114 94 85 78 -18 -9 -23 -6 -14 8 10 17 26 17 63 0 34 -16 43 -29 29 -46z m99 -41 c-41 -44 -49 -46 -65 -17 -21 37 18 74 61 58 14 -5 25 1 25 14 0 12 6 17 13 9 8 -7 -7 -36 -34 -64z m128 16 c-34 -30 -77 -86 -96 -125 l-33 -70 42 50 c122 145 150 168 157 132 7 -38 -64 -118 -86 -97 -7 7 -18 -7 -24 -31 -6 -24 -19 -39 -28 -33 -9 5 -22 0 -29 -11 -8 -13 -25 -13 -49 0 -35 18 -74 -20 -64 -65 2 -8 -6 -15 -17 -15 -94 0 170 311 270 318 11 1 -8 -23 -43 -53z"/> <path d="M850 2894 c4 -88 93 -323 142 -373 15 -16 -4 49 -43 145 -39 96 -66 183 -59 194 7 11 2 20 -10 20 -13 0 -18 16 -11 38 7 21 5 44 -5 50 -10 6 -16 -27 -14 -74z"/> <path d="M700 2021 c0 -28 181 -81 269 -79 l81 3 -90 16 c-49 8 -128 30 -175 46 -47 17 -85 23 -85 14z"/> <path d="M1505 1819 c-29 -11 -40 -28 -33 -48 7 -17 20 -26 30 -20 10 7 13 20 7 30 -6 11 0 20 15 21 53 3 146 21 154 29 16 16 -128 7 -173 -12z"/> <path d="M1129 1496 c-65 -68 -101 -111 -79 -96 50 35 227 220 211 220 -7 0 -66 -56 -132 -124z"/> <path d="M4331 3078 c-39 -34 -87 -88 -106 -120 -39 -67 -65 -75 -65 -20 0 138 -197 -27 -260 -219 l-25 -75 -59 118 c-86 172 -163 119 -160 -111 2 -146 -119 -416 -197 -441 -22 -7 -53 -39 -70 -71 -16 -32 -79 -94 -138 -138 -258 -191 -321 -273 -368 -479 l-44 -188 81 -107 c45 -59 92 -107 104 -107 13 0 43 -18 67 -40 64 -61 157 -82 206 -48 35 24 48 24 101 -7 45 -26 70 -30 94 -14 24 15 67 13 150 -8 130 -32 178 -22 178 34 0 34 10 38 81 28 71 -9 83 -5 93 33 7 29 22 40 41 33 99 -38 214 39 168 112 -20 31 -17 37 16 37 116 0 289 138 176 140 -14 1 14 19 62 40 112 51 106 99 -17 128 -49 12 -87 31 -83 42 4 11 16 17 27 14 61 -17 256 102 256 157 0 10 -45 19 -100 19 -114 0 -111 54 6 102 63 27 134 114 174 214 38 98 5 111 -106 42 -53 -32 -105 -54 -116 -47 -11 7 -36 -1 -55 -18 -55 -50 -577 -172 -551 -129 10 16 3 18 -24 6 -21 -10 -63 -18 -93 -19 -58 -1 -72 -20 -30 -40 14 -6 -24 -7 -85 -1 -60 5 -130 10 -155 10 -73 0 -51 37 30 52 41 7 93 28 115 47 161 138 380 162 281 30 -62 -82 -20 -89 149 -28 61 22 128 43 150 46 69 11 157 67 239 151 99 103 85 107 -24 7 -45 -41 -112 -91 -148 -111 l-67 -37 75 63 c41 35 75 76 75 91 0 14 18 32 39 39 22 7 56 33 76 58 52 66 110 80 139 35 26 -42 -39 -129 -114 -153 -31 -10 -37 -20 -21 -39 11 -13 18 -28 16 -33 -3 -4 34 31 82 80 89 89 143 188 143 261 0 56 -43 51 -100 -9 -54 -58 -91 -66 -70 -15 9 19 17 49 20 65 2 17 15 55 27 86 75 186 -37 310 -125 139 -74 -143 -118 -196 -88 -105 31 93 45 480 18 480 -11 0 -53 -28 -91 -62z m25 -62 c-26 -25 -31 -33 -11 -17 56 44 79 -5 68 -141 -9 -117 -45 -198 -88 -198 -14 0 -25 -10 -25 -22 0 -12 14 -17 30 -11 17 7 30 3 30 -9 0 -100 -367 -456 -456 -443 l-55 8 102 104 c133 133 214 274 219 380 2 46 5 108 7 139 3 54 196 288 218 265 5 -5 -12 -30 -39 -55z m-216 -107 c0 -16 -7 -28 -15 -27 -44 7 -70 -10 -134 -95 -78 -101 -97 -101 -28 0 103 150 177 201 177 122z m-400 -149 c-14 -8 -32 -68 -40 -133 l-15 -117 -2 94 c-3 102 31 202 62 183 11 -7 9 -18 -5 -27z m857 -28 c10 -53 -13 -125 -52 -164 -25 -25 -28 -37 -10 -43 14 -5 25 -17 25 -28 0 -11 -10 -13 -23 -5 -14 9 -18 5 -9 -8 22 -36 -70 -144 -158 -185 -44 -21 -69 -38 -55 -38 49 -2 23 -35 -79 -102 -57 -37 -120 -66 -140 -64 -22 1 -31 -6 -23 -20 9 -14 2 -17 -20 -9 -18 7 -33 4 -33 -7 0 -10 -13 -19 -30 -19 -35 0 -37 8 -11 55 10 19 24 53 31 75 13 39 13 39 41 1 31 -41 92 -54 133 -28 24 15 -20 27 -69 19 -8 -1 -15 8 -15 19 0 12 -9 16 -20 9 -65 -40 -1 49 115 159 74 71 167 169 205 219 75 97 154 126 133 49 -8 -31 -5 -37 11 -21 12 12 15 37 5 58 -8 20 -13 44 -11 54 2 10 -10 7 -28 -8 -29 -24 -30 -22 -9 25 26 57 85 61 96 7z m-493 -27 c-34 -12 -30 -65 6 -65 23 0 25 -10 8 -55 -25 -67 -96 -145 -130 -145 -15 0 -33 -13 -42 -29 -33 -58 -67 -4 -45 70 11 38 14 94 8 124 -10 44 -5 55 24 55 31 -1 32 -4 7 -20 -16 -11 -21 -20 -11 -20 11 0 40 25 65 55 52 62 48 37 -18 -112 -36 -81 -34 -145 2 -86 9 15 24 25 34 23 9 -2 21 8 25 21 5 16 -1 19 -17 9 -17 -11 -21 -8 -12 7 8 13 22 19 32 13 22 -13 47 63 30 90 -19 31 10 103 35 87 17 -11 17 -16 -1 -22z m-224 -168 c0 -23 -19 -72 -41 -109 -23 -37 -37 -75 -32 -84 6 -9 2 -29 -8 -45 -15 -24 -18 -22 -19 9 0 37 -1 37 -41 1 -68 -61 -112 -55 -56 7 26 30 55 59 65 67 9 7 11 23 3 35 -8 13 -3 21 12 17 15 -3 29 17 33 45 14 91 84 139 84 57z m840 -46 c0 -27 -49 -111 -64 -111 -10 0 -13 9 -6 20 7 11 1 20 -12 20 -15 0 -10 15 12 40 33 37 70 53 70 31z m-899 -270 c-43 -80 -70 -59 -42 34 0 3 15 5 32 5 24 0 26 -8 10 -39z m-71 -1 c7 -11 -9 -20 -36 -20 -79 0 -174 -42 -176 -77 -1 -23 -4 -25 -12 -7 -6 15 9 45 32 66 23 22 42 33 42 25 0 -8 11 -4 24 9 29 29 109 32 126 4z m920 -112 c-53 -128 -151 -207 -203 -165 -15 12 -29 11 -38 -4 -8 -13 -4 -30 9 -38 18 -11 17 -20 -2 -35 -51 -40 -96 -44 -195 -18 -56 14 -101 18 -101 9 0 -9 11 -17 24 -17 16 0 17 -7 4 -20 -40 -40 -200 26 -211 88 -6 31 13 42 113 64 66 14 199 47 295 74 96 26 175 40 175 31 0 -9 9 -17 19 -17 11 0 15 12 9 27 -9 25 110 122 128 104 3 -4 -8 -41 -26 -83z m-930 54 c0 -28 -45 -56 -115 -71 -35 -8 -62 -23 -60 -35 3 -12 -8 -25 -25 -30 -27 -8 -27 -7 0 12 17 12 23 22 14 22 -30 0 29 82 72 100 58 23 114 24 114 2z m-286 -152 c-17 -49 -53 -97 -94 -125 -57 -39 -54 -58 9 -46 18 4 -12 -37 -89 -120 -16 -17 -61 -53 -100 -79 -38 -26 -113 -83 -166 -126 -106 -88 -142 -91 -63 -5 28 31 47 60 41 65 -14 15 35 64 53 53 8 -5 10 3 4 18 -16 41 100 138 130 108 18 -17 20 -14 9 15 -12 31 -8 36 18 26 19 -7 32 -6 29 2 -2 8 23 42 56 75 112 116 169 209 129 209 -11 0 -4 18 15 41 48 56 57 1 19 -111z m462 -94 c63 -63 -82 -119 -166 -64 l-51 34 45 25 c60 33 142 35 172 5z m-248 -52 c51 -25 69 -43 53 -53 -13 -9 -35 -5 -47 7 -12 12 -67 20 -123 19 -101 -4 -101 -4 -16 -12 47 -4 85 -16 85 -26 0 -10 29 -15 65 -11 91 11 146 -20 107 -59 -43 -43 -144 -37 -178 12 -26 37 -32 38 -60 10 -39 -39 -56 -40 -42 -2 8 21 0 27 -27 22 -33 -6 -38 2 -32 52 12 107 62 117 215 41z m487 -81 c35 3 75 -5 89 -19 13 -13 45 -24 70 -24 25 0 46 -9 46 -20 0 -11 -11 -18 -25 -15 -14 3 -22 -10 -19 -30 3 -21 -7 -35 -26 -35 -43 0 -132 60 -120 81 6 9 0 23 -13 31 -14 8 -18 6 -10 -7 9 -14 -10 -20 -54 -16 -76 6 -118 26 -104 50 6 9 -4 15 -22 14 -18 -2 -37 8 -41 22 -7 18 14 16 77 -6 48 -17 116 -29 152 -26z m-580 -103 c35 0 85 -72 85 -121 0 -36 -108 -19 -157 26 -27 25 -43 34 -35 20 26 -46 -8 -26 -79 45 -101 101 -60 151 65 78 46 -26 100 -48 121 -48z m346 -14 c27 -18 95 -75 151 -126 95 -85 210 -139 300 -141 35 0 34 -4 -7 -38 -91 -76 -285 -69 -285 10 0 16 -10 29 -22 29 -12 0 -17 -13 -11 -30 31 -80 -72 -25 -131 70 -56 91 -77 109 -120 103 -7 -1 -31 20 -53 47 -21 28 -45 50 -52 50 -29 0 100 -145 143 -161 25 -10 46 -28 46 -40 0 -12 -10 -15 -23 -7 -15 9 -18 5 -9 -9 8 -13 23 -19 32 -13 9 6 24 0 32 -13 9 -14 6 -18 -9 -9 -41 25 -25 -17 28 -73 63 -68 146 -124 161 -109 7 6 -16 25 -49 42 -85 44 -93 68 -22 63 123 -10 222 -119 129 -143 -103 -26 -180 7 -229 97 -26 47 -90 126 -142 176 -163 156 -149 199 82 256 5 2 32 -12 60 -31z m251 -80 c67 -36 129 -59 138 -51 9 8 10 4 2 -10 -10 -18 -25 -19 -51 -6 -19 11 -42 14 -49 7 -7 -7 -31 7 -53 30 -53 58 -96 57 -47 0 25 -30 13 -25 -35 15 -152 122 -113 129 95 15z m-12 58 c0 8 32 1 70 -15 39 -16 70 -23 71 -14 0 8 9 -1 21 -20 11 -20 28 -31 37 -26 9 6 22 -2 28 -18 6 -17 3 -35 -8 -42 -11 -6 -25 3 -31 20 -7 17 -25 31 -41 31 -47 0 -187 79 -187 105 1 16 8 14 20 -5 11 -16 20 -24 20 -16z m-890 -24 c-7 -11 1 -20 18 -20 16 0 40 -16 52 -35 20 -31 22 -30 13 10 -12 60 15 57 66 -8 45 -57 50 -83 22 -125 -21 -35 -115 17 -135 74 -7 19 -30 54 -52 79 -37 40 -37 45 -6 45 19 0 29 -9 22 -20z m-84 -35 c-7 -19 -5 -28 4 -20 23 21 90 -44 90 -87 0 -50 -69 -85 -117 -60 -25 14 -44 13 -58 -1 -30 -30 -65 -3 -64 49 0 43 1 43 30 5 28 -37 29 -37 29 9 0 26 20 68 43 94 53 55 60 57 43 11z m539 -141 c19 -16 29 -38 23 -48 -7 -10 -24 -8 -40 5 -15 13 -23 30 -18 39 5 9 -2 15 -15 15 -79 -3 -107 7 -65 24 43 17 60 12 115 -35z m-216 -6 c-10 -15 0 -18 30 -8 50 15 211 -78 190 -111 -6 -11 2 -25 20 -31 17 -7 26 -20 21 -29 -14 -22 72 -80 96 -65 12 7 14 2 6 -11 -8 -13 -25 -17 -38 -9 -14 8 -12 -1 3 -20 24 -29 24 -34 -3 -34 -31 0 -134 108 -134 142 0 10 -10 18 -21 18 -13 0 -16 -18 -7 -45 12 -40 10 -42 -19 -18 -51 43 -171 218 -158 231 20 20 28 13 14 -10z m-177 -14 c-5 -9 16 -32 48 -51 31 -18 91 -81 133 -138 98 -135 110 -147 163 -164 79 -25 46 -47 -37 -26 -52 13 -98 42 -125 79 -38 51 -44 53 -55 22 -10 -28 -24 -14 -65 66 -28 56 -75 117 -104 136 -51 33 -52 36 -17 63 41 31 75 38 59 13z m-192 -124 c103 -96 191 -251 130 -227 -16 6 -25 18 -20 27 6 9 -16 28 -48 43 -33 14 -55 32 -50 41 6 9 -31 59 -81 113 -139 149 -90 151 69 3z m20 62 c0 -10 17 -14 38 -8 42 11 74 -24 41 -45 -14 -9 -10 -26 13 -51 19 -21 31 -41 26 -44 -4 -4 -43 32 -86 80 -42 47 -67 86 -55 86 13 0 23 -8 23 -18z m-110 -82 c61 -62 73 -85 54 -104 -19 -19 -24 -16 -24 10 0 19 -13 34 -29 34 -15 0 -34 18 -41 40 -7 22 -20 40 -29 40 -9 0 -22 14 -28 30 -20 52 16 33 97 -50z m807 18 c5 -15 30 -56 56 -90 42 -56 67 -114 34 -82 -7 8 -28 2 -45 -11 -28 -22 -29 -21 -5 9 31 40 18 67 -61 134 -31 26 -56 55 -56 63 0 27 67 7 77 -23z"/> <path d="M4353 2967 c-7 -8 -13 -30 -13 -50 0 -20 -10 -37 -22 -37 -12 0 -17 13 -12 28 7 18 -1 26 -22 23 -19 -3 -34 -17 -34 -33 0 -15 11 -26 25 -23 40 8 30 -40 -45 -217 -38 -91 -61 -157 -51 -147 32 33 121 223 134 287 6 34 20 56 29 50 10 -5 18 9 18 32 0 29 8 37 25 27 20 -12 20 -8 0 16 -13 17 -19 37 -11 44 7 7 8 13 3 13 -6 0 -16 -6 -24 -13z"/> <path d="M4391 2502 c-40 -56 -115 -137 -165 -181 -50 -45 -82 -81 -71 -81 33 0 212 169 274 259 83 119 49 121 -38 3z"/> <path d="M4436 2019 c-19 -11 -91 -32 -160 -47 -87 -19 -107 -29 -65 -30 73 -2 262 51 279 79 16 24 -10 24 -54 -2z"/> <path d="M4009 1510 c60 -60 116 -110 124 -110 9 0 -33 50 -93 110 -60 61 -116 110 -124 110 -9 0 33 -49 93 -110z"/> <path d="M3136 1550 c-17 -18 7 -110 26 -99 23 14 24 109 1 109 -9 0 -21 -5 -27 -10z"/> <path d="M2003 2694 c-15 -19 -11 -32 16 -49 30 -19 40 -17 49 8 23 59 -25 89 -65 41z"/> <path d="M701 2594 c-2 -35 122 -193 211 -272 138 -121 137 -100 -1 43 -67 69 -142 152 -166 185 -24 33 -44 53 -44 44z"/> </g> </svg> 